<svg xmlns="http://www.w3.org/2000/svg" width="33.599" height="50.492" viewBox="0 0 33.599 50.492">
  <g id="jquery" transform="translate(-8.446 0)">
    <g id="Group_1" data-name="Group 1">
      <path id="Path_1" data-name="Path 1" d="M41,28.721c-2.448-2.371-6.724.924-7.368-3.854-.4-2.973,5.336-1.877,7.082-3.623,2.245-2.244,1.127-3.577-1.6-4.548-5.521-1.967-11.381,2.355-12.3,7.695a7.338,7.338,0,0,0-.008,1.986,8.8,8.8,0,0,0,5.619,6.9,8.469,8.469,0,0,1,.909.343c-.024.021.072.074.216.113a.527.527,0,0,0,.3.022c.023-.022.482.05,1.033.1a9.5,9.5,0,0,0,4.5-.717C41.656,32.191,43.161,30.818,41,28.721ZM28.7,25.664a7.527,7.527,0,0,1,.028-1.791c.012-.068.022-.136.035-.2a3.864,3.864,0,0,1,.918-1.69l3.66-3.75c.387-.4.483-.669.221-.593a4,4,0,0,0-1.188.847c-1.165,1.136-.3.349-2.175,2.161-.4.384-.538.283-.249-.188a6.726,6.726,0,0,1,7.565-3.029,4.279,4.279,0,0,1,.521.143c.283.1.39.166.255.119s-.48.144-.771.416-.185.273.265.057a1.522,1.522,0,0,1,1.618.259c1.138,1.3.259,3.239-2.075,3.012a7.043,7.043,0,0,0-2.448.229c-.533.145-.814.07-.635-.242s.031-.236-.365.147c-1.519,1.471-.822.7-4.337,4.182C29.153,26.137,28.762,26.1,28.7,25.664Zm.471,2.065a1.548,1.548,0,0,1,.514-1.41q.726-.679,1.443-1.354c.4-.377.719-.638.706-.581a.869.869,0,0,0-.02.1,5.212,5.212,0,0,0-.048.848,2.206,2.206,0,0,1-.625,1.524c-.32.3-.643.6-.963.9C29.777,28.132,29.309,28.126,29.174,27.729Zm10.248,3.48a5.32,5.32,0,0,1-3.7,1.765c-.552,0-.765-.344-.482-.632s.46-.563.4-.617-.387.153-.729.465-.806.508-1.026.418c-.13-.053-.261-.11-.392-.178a8.3,8.3,0,0,1-.767-.4.726.726,0,0,1-.014-1.182c.2-.19.393-.382.59-.569a3.321,3.321,0,0,0,.685-.774c-.022-.048-.36.227-.755.612l-.649.635a1.11,1.11,0,0,1-1.489.066c-.142-.136-.277-.275-.406-.422a1.092,1.092,0,0,1,.127-1.474c.3-.279.6-.56.9-.839a1.117,1.117,0,0,1,1.445.018,5.018,5.018,0,0,0,1.066.6c1.627.688,3.08-.627,4.758.483a2.961,2.961,0,0,1,.609.595A1.133,1.133,0,0,1,39.422,31.209Z" fill="#a9ccf0"/>
      <path id="Path_2" data-name="Path 2" d="M34.768,8.357c0,.008,0,.015,0,.023C34.975,8.161,34.994,8.134,34.768,8.357Z" fill="#a9ccf0"/>
      <path id="Path_3" data-name="Path 3" d="M38.872,37.873c-2.968-1.564-6.382-.8-9.459-2.819-2.991-1.967-4.53-5.393-5.086-8.8-.718-4.393,1.659-8.63,4.945-11.308,4.688-3.82,5.664-.528,8.48-2.428,2.764-1.863,1.956-5.509-1.324-5.63-10.439-.384-18.72,8.453-19.108,18.495.348,9.013,8.75,19.462,18.674,18.171.547-.071,1-.167,1.013-.167s.184-.04.379-.085c.118-.026.235-.056.354-.087C39.7,42.69,41.145,39.07,38.872,37.873ZM23.524,13.591a19.654,19.654,0,0,1,2.178-2.2,3.042,3.042,0,0,1,.247-.188c.141-.1-.058.146-.447.539q-.951.96-1.9,1.92C23.215,14.053,23.168,14.013,23.524,13.591Zm-3.595,6.856a17.6,17.6,0,0,1,1.111-2.991,6.621,6.621,0,0,1,1.177-1.583c.364-.351.728-.7,1.092-1.056,1.364-1.381,2.734-2.752,4.1-4.127A6.564,6.564,0,0,1,29.02,9.555c2.152-.969,4.828-1.876,6.565-1.708.55.053.792.43.585.643s-.1.29.244.19a.8.8,0,0,1,.954.63,2.99,2.99,0,0,1-.017.875c-.326,2.175-2.228,1.747-3.9,2.02a13.03,13.03,0,0,0-5.54,2.39c-.446.326-.524.255-.173-.171a17.82,17.82,0,0,1,4.434-3.868,10.138,10.138,0,0,0,1.471-1.1c.244-.238.449-.438.611-.591.241-.242.4-.4.512-.511.05-.218-.116-.361-.5-.327l-.039,0a2.968,2.968,0,0,0-1.482.569c-.165.151-.328.3-.488.45q-5.76,5.652-11.858,11.663C20.012,21.1,19.784,20.98,19.929,20.447Zm-.643,4.9c-.014-.161-.026-.321-.033-.483,0-.138.018-.273.031-.408a2.8,2.8,0,0,1,.736-1.125q1.474-1.52,2.864-2.946c.386-.4.493-.318.288.194q-.184.459-.331.93a4.923,4.923,0,0,1-.954,1.685L20.024,25.12C19.64,25.515,19.309,25.619,19.286,25.351Zm.619,4.051c-.007-.026-.013-.053-.02-.078a1.973,1.973,0,0,1,.487-1.682c.347-.345.693-.689,1.043-1.035.117-.128.234-.257.352-.385.194-.213.03-.074-.367.311-.363.35-.714.688-1.034,1-.4.384-.771.434-.822.111a1.882,1.882,0,0,1,.627-1.286l1.443-1.423c.393-.389.695-.444.694-.125,0,.191,0,.383.015.576a15.006,15.006,0,0,0,.161,1.521,2.169,2.169,0,0,1-.527,1.688l-1.069,1.062C20.5,30.048,20.042,29.937,19.905,29.4ZM21.7,33.864q-.4-.707-.736-1.446a1.618,1.618,0,0,1,.313-1.642l.99-1.02c.385-.4.823-.286,1.021.23a12.768,12.768,0,0,0,.779,1.667,1.3,1.3,0,0,1-.208,1.534q-.452.42-.9.844A.778.778,0,0,1,21.7,33.864ZM33.854,42.12c-.545-.081-.883-.28-.756-.415s-.172-.445-.651-.723l-.1-.06a1.2,1.2,0,0,0-1.326-.066,1.4,1.4,0,0,1-1.405.087c-.347-.158-.685-.33-1.019-.515a.737.737,0,0,1-.154-1.219.17.17,0,0,0,.019-.019c.39-.392.533-.871.329-1.083s-.693-.085-1.1.287c-.066.062-.133.121-.2.184a1.244,1.244,0,0,1-1.538.075q-.557-.434-1.087-.894c-.134-.115-.259-.237-.382-.361-.2-.205-.053-.694.334-1.089l.741-.752c.388-.394.674-.759.639-.816s-.391.2-.8.574q-.411.383-.822.762c-.405.375-.95.453-1.2.159s-.11-.847.3-1.22c.306-.28.611-.562.917-.843a.981.981,0,0,1,1.394.077,16.116,16.116,0,0,0,1.625,1.517,13.2,13.2,0,0,0,4.917,2.241c1.688.465,4.266-.217,5.185,1.887C38.8,42.39,36.094,42.448,33.854,42.12Z" fill="#a9ccf0"/>
      <path id="Path_4" data-name="Path 4" d="M33.338,9.913a10.656,10.656,0,0,0,.778-.757l.457-.47a.769.769,0,0,0,.194-.306c-.168.177-.445.467-.816.852A5.761,5.761,0,0,0,33.338,9.913Z" fill="#a9ccf0"/>
      <path id="Path_5" data-name="Path 5" d="M31.869,44.079C22.188,43.051,15.7,34.068,15.378,24.867c-.173-4.9,2.073-9.557,5.223-13.154A18.244,18.244,0,0,1,28.722,6.68c2.133-.694,4.363-.185,6.428-.737,1.719-.461,1.99-1.874,2.15-3.464C37.593-.42,34.966,0,33.033.051,19.377.432,8.819,12.073,8.446,25.385A25.581,25.581,0,0,0,18.183,45.04c4.118,3.332,11.858,6.545,17.278,5.093a.778.778,0,0,0,.1-.035c.056-.021.089-.025.072-.01s-.01.015.012,0a3.221,3.221,0,0,0,.912-.511,2.932,2.932,0,0,0,.8-2.705C37,43.414,34.6,44.369,31.869,44.079ZM12.647,14.863a24.307,24.307,0,0,1,1.141-2.2,8.854,8.854,0,0,1,1.239-1.551L19.48,6.781l2.358-2.212a8.092,8.092,0,0,1,1.616-1.146q.783-.387,1.593-.711c.512-.2.616-.04.22.345-4.187,4.071-8,7.823-12.3,12.023C12.573,15.468,12.418,15.365,12.647,14.863Zm.293.284c2.358-2.3,4.153-4.028,2.952-2.793L12.9,15.245c-.4.385-.71.675-.7.648S12.544,15.533,12.94,15.147Zm-2.131,5.616q.148-.818.347-1.617a4.355,4.355,0,0,1,.962-1.68q7.557-7.69,14.805-14.9c.391-.39.342-.61-.1-.474s-.382.109.146-.052a27.188,27.188,0,0,1,4.155-.914C33.008.859,35.578.795,35.28,3.75,35.1,5.542,32.644,5.1,31.416,5.227A19.929,19.929,0,0,0,16.052,15.862a8.335,8.335,0,0,1-1.157,1.6q-1.771,1.786-3.541,3.577C10.962,21.431,10.709,21.306,10.809,20.763ZM10.4,25.311c-.008-.147-.015-.3-.019-.442.013-.475.04-.944.078-1.41a3.049,3.049,0,0,1,.823-1.685q1.47-1.4,2.936-2.818c.4-.384.553-.279.378.244a21.644,21.644,0,0,0-.626,2.271,3.928,3.928,0,0,1-.906,1.684q-.96.947-1.928,1.9C10.74,25.44,10.409,25.556,10.4,25.311Zm.339,3.319a2.044,2.044,0,0,1,.583-1.487l1.468-1.513c.385-.4.69-.611.677-.482-.007.078-.014.157-.017.236-.008.228-.01.45-.009.674a2.418,2.418,0,0,1-.679,1.39q-.6.614-1.194,1.231C11.18,29.076,10.8,29.055,10.735,28.63Zm.494,2.4a1.653,1.653,0,0,1,.582-1.239c.345-.34.69-.682,1.035-1.021.393-.389.741-.429.79-.093a1.857,1.857,0,0,1-.619,1.3l-.926.894C11.694,31.253,11.3,31.325,11.229,31.029Zm.466,1.628,0-.013a1.814,1.814,0,0,1,.421-1.663c.485-.482.97-.966,1.458-1.447l.088-.1c.049-.053.168.346.3.882q.012.047.024.1a1.915,1.915,0,0,1-.435,1.668c-.275.272-.548.546-.82.814A.574.574,0,0,1,11.695,32.657Zm1.89,4.387q-.387-.7-.726-1.42a1.579,1.579,0,0,1,.29-1.633l.8-.818a.618.618,0,0,1,1.087.2q.366.8.807,1.56a1.286,1.286,0,0,1-.207,1.532l-.81.757A.762.762,0,0,1,13.585,37.044ZM15.167,39.5a1.018,1.018,0,0,1,.327-1.247c.283-.259.566-.52.849-.777.407-.373.924-.428,1.165-.13a.95.95,0,0,1-.288,1.211c-.3.274-.592.549-.888.822C15.926,39.752,15.4,39.809,15.167,39.5Zm19.261,9.764a17.8,17.8,0,0,1-2.8-.159c-.547-.071-.945-.195-.9-.248s.009-.125-.094-.166a.3.3,0,0,0-.307.053,2.352,2.352,0,0,1-1.1-.087c-.281-.066-.562-.139-.842-.213-.533-.142-.82-.417-.646-.6s-.027-.5-.439-.731a1.053,1.053,0,0,0-1.185.016,1.356,1.356,0,0,1-1.369.062c-.137-.062-.272-.125-.407-.188-.5-.239-.636-.726-.321-1.062a.845.845,0,0,0-.214-1.229l-.089-.073a1.127,1.127,0,0,0-1.477.041l-.007.007a1.256,1.256,0,0,1-1.541.124q-.4-.283-.781-.583a.871.871,0,0,1-.076-1.332c.109-.108.22-.22.33-.331.39-.392.545-.893.352-1.124s-.675-.121-1.082.251c-.163.148-.325.3-.488.446-.407.373-.786.634-.845.583-.036-.031-.072-.062-.107-.094a20.338,20.338,0,0,1-1.5-1.5,1.092,1.092,0,0,1,.051-1.469l.862-.874a.965.965,0,0,1,1.389.017,22.216,22.216,0,0,0,14.837,6.441C34.585,45.272,37.016,49.194,34.428,49.262Z" fill="#a9ccf0"/>
      <path id="Path_6" data-name="Path 6" d="M35.667,18.028c.408-.373.64-.683.519-.692a2.56,2.56,0,0,0-.924.7c-.963.981-1.931,1.957-2.894,2.939-.388.394-.369.412.038.038Q34.037,19.519,35.667,18.028Z" fill="#a9ccf0"/>
      <path id="Path_7" data-name="Path 7" d="M38.533,33.538a.227.227,0,0,0-.208.075c-.062.062-.018.084.1.039S38.585,33.557,38.533,33.538Z" fill="#a9ccf0"/>
      <path id="Path_8" data-name="Path 8" d="M29.537,3.145A5.809,5.809,0,0,0,31,2.129l.291-.287c.394-.388.5-.687.233-.662a2.7,2.7,0,0,0-1.185.757l-.835.839C29.113,3.167,29.125,3.324,29.537,3.145Z" fill="#a9ccf0"/>
    </g>
  </g>
</svg>
